<?xml version="1.0" encoding="UTF-8"?>
<svg xmlns="http://www.w3.org/2000/svg" xmlns:xlink="http://www.w3.org/1999/xlink" width="919.53pt" height="230.47pt" viewBox="0 0 919.53 230.47" version="1.1">
<g id="surface1">
<path style=" stroke:none;fill-rule:evenodd;fill:rgb(13.299561%,12.199402%,12.5%);fill-opacity:1;" d="M 287.144531 125.691406 C 297.132813 117.320313 297.019531 102.128906 290.164063 97.765625 C 283.308594 93.402344 267.804688 96.882813 262.753906 109.367188 C 257.707031 121.851563 257.296875 129.460938 254.535156 136.253906 C 260.316406 135.828125 277.152344 134.0625 287.144531 125.691406 Z M 221.78125 173.777344 C 231.585938 143.992188 240.925781 113.769531 247.972656 82.59375 C 253.472656 82.59375 259.746094 82.726563 265.242188 82.726563 L 263.167969 94.496094 C 277.125 85.441406 286.316406 83.09375 295.46875 83.84375 C 328.5625 86.546875 310.769531 130.027344 293.28125 140.476563 C 283.019531 146.613281 269.117188 149.347656 249.914063 146.617188 C 247.648438 155.671875 245.386719 164.726563 243.125 173.777344 C 236.007813 173.777344 228.894531 173.777344 221.78125 173.777344 "/>
<path style=" stroke:none;fill-rule:evenodd;fill:rgb(13.299561%,12.199402%,12.5%);fill-opacity:1;" d="M 346.277344 104.972656 C 337.589844 113.339844 337.6875 128.535156 343.652344 132.898438 C 349.613281 137.261719 363.101563 133.78125 367.492188 121.296875 C 371.886719 108.816406 372.242188 101.203125 374.644531 94.410156 C 369.617188 94.835938 354.964844 96.605469 346.277344 104.972656 Z M 383.570313 148.246094 C 377.34375 148.246094 371.898438 148.375 365.675781 148.375 L 366.835938 134.886719 C 354.039063 146.980469 333.296875 154.972656 323.78125 143.578125 C 310.746094 125.769531 323.09375 102.609375 337.785156 93.097656 C 354.089844 82.535156 375.738281 83.082031 397.3125 82.625 C 389.589844 104.089844 384.402344 126.097656 383.570313 148.246094 "/>
<path style=" stroke:none;fill-rule:evenodd;fill:rgb(13.299561%,12.199402%,12.5%);fill-opacity:1;" d="M 423.464844 104.972656 C 414.773438 113.339844 414.871094 128.535156 420.835938 132.898438 C 426.800781 137.261719 440.289063 133.78125 444.679688 121.296875 C 449.074219 108.816406 449.429688 101.203125 451.832031 94.410156 C 446.804688 94.835938 432.15625 96.605469 423.464844 104.972656 Z M 390.660156 174.28125 L 393.792969 157.636719 C 407.699219 162.140625 419.773438 164.308594 428.84375 159.757813 C 435.898438 156.21875 441.144531 148.613281 444.023438 134.886719 C 431.230469 146.980469 410.484375 154.972656 400.972656 143.578125 C 387.933594 125.769531 400.28125 102.609375 414.972656 93.097656 C 431.277344 82.535156 452.929688 83.082031 474.503906 82.625 C 467.820313 101.191406 467.695313 130.324219 458.824219 151.054688 C 454.144531 162 446.273438 169.027344 436.855469 173.050781 C 423.085938 178.925781 405.996094 178.386719 390.660156 174.28125 "/>
<path style=" stroke:none;fill-rule:evenodd;fill:rgb(64.698792%,80.799866%,22.399902%);fill-opacity:1;" d="M 637.191406 104.972656 C 628.507813 113.339844 628.601563 128.535156 634.5625 132.898438 C 640.53125 137.261719 654.015625 133.78125 658.410156 121.296875 C 662.800781 108.816406 663.15625 101.203125 665.5625 94.410156 C 660.53125 94.835938 645.882813 96.605469 637.191406 104.972656 Z M 477.808594 131.890625 C 475.730469 136.378906 473.398438 141.128906 471.328125 145.617188 C 496.632813 151.125 516.007813 147.800781 523.648438 139.660156 C 531.113281 130.453125 529.863281 120.03125 516.914063 112.460938 C 514.15625 110.542969 506.351563 106.675781 506.554688 102.101563 C 506.921875 91.691406 522.75 94.167969 532.464844 97.179688 L 535.5625 82.929688 C 528.773438 81.355469 520.152344 80.886719 513.226563 81.566406 C 504.796875 82.390625 495.722656 86.035156 488.6875 93.03125 C 483.222656 98.707031 482.097656 106.351563 484.097656 111.003906 C 486.5 116.585938 494.292969 118.929688 498.269531 121.261719 C 504.917969 124.359375 508.878906 126.699219 507.75 131.40625 C 506.804688 135.363281 501.984375 138.597656 493.363281 137.058594 C 488.007813 136.101563 481.75 134.195313 477.808594 131.890625 Z M 561.082031 110.132813 C 564.207031 103.214844 569.496094 96.21875 580.25 94.847656 C 588.714844 94.027344 589.617188 102.949219 584.644531 106.382813 C 575.613281 110.273438 574.605469 104.9375 561.082031 110.132813 Z M 596.175781 133.183594 C 595.660156 137.5 594.101563 141.816406 593.589844 146.136719 C 573.472656 148.898438 551.886719 153.554688 540.746094 137.847656 C 529.214844 115.613281 545.847656 95.246094 560.429688 87.597656 C 586.035156 76.113281 603.816406 81.960938 607.574219 93.296875 C 615.164063 113.175781 591.691406 126.292969 557.839844 122.304688 C 554.3125 139.589844 571.972656 139.332031 596.175781 133.183594 Z M 702.375 82.414063 C 708.589844 82.589844 714.808594 82.761719 721.023438 82.933594 C 717.738281 96.746094 712.386719 110.042969 709.109375 123.859375 C 704.25 140.664063 724.289063 138.917969 732.9375 128.519531 C 740.636719 114.984375 744.082031 98.738281 749 82.414063 C 755.214844 82.414063 761.429688 82.414063 767.648438 82.414063 C 760.609375 104 754.476563 125.585938 751.585938 147.171875 C 746.0625 146.824219 739.496094 146.480469 733.976563 146.136719 C 734.148438 142.679688 734.316406 139.226563 734.492188 135.773438 C 715.808594 152.9375 685.054688 157.46875 688.902344 128.519531 C 691.113281 113.152344 697.351563 97.785156 702.375 82.414063 Z M 762.984375 146.136719 C 771.316406 124.976563 776.921875 97.972656 781.113281 82.933594 L 796.140625 82.933594 L 795.617188 96.402344 C 802.179688 87.339844 814.097656 82.332031 826.1875 82.933594 L 820.488281 100.03125 C 805.460938 98.058594 794.867188 110.082031 789.011719 129.953125 C 787.519531 135.015625 786.328125 140.589844 785.460938 146.566406 Z M 839.660156 90.964844 C 820.660156 103.695313 813.039063 125.152344 822.648438 138.882813 C 832.253906 152.613281 855.449219 153.425781 874.441406 140.695313 C 893.441406 127.96875 901.058594 106.507813 891.460938 92.777344 C 881.851563 79.046875 858.660156 78.234375 839.660156 90.964844 Z M 845.125 110.492188 C 838.992188 121.457031 839.761719 133.089844 846.847656 136.46875 C 853.933594 139.84375 864.648438 133.691406 870.789063 122.722656 C 876.925781 111.757813 876.15625 100.128906 869.070313 96.746094 C 861.984375 93.371094 851.261719 99.523438 845.125 110.492188 Z M 604.390625 174.28125 L 607.519531 157.636719 C 621.425781 162.140625 633.5 164.308594 642.570313 159.757813 C 649.625 156.21875 654.871094 148.613281 657.746094 134.886719 C 644.953125 146.980469 624.210938 154.972656 614.699219 143.578125 C 601.660156 125.769531 614.011719 102.609375 628.699219 93.097656 C 645.003906 82.535156 666.65625 83.082031 688.230469 82.625 C 681.546875 101.191406 681.425781 130.324219 672.550781 151.054688 C 667.867188 162 660.003906 169.027344 650.585938 173.050781 C 636.8125 178.925781 619.722656 178.386719 604.390625 174.28125 "/>
<path style=" stroke:none;fill-rule:evenodd;fill:rgb(13.299561%,12.199402%,12.5%);fill-opacity:1;" d="M 48.03125 59.5625 C 41.554688 67.175781 36.671875 75.835938 33.097656 85.308594 C 29.347656 95.160156 27.34375 105.285156 27.34375 116.082031 C 27.34375 128.316406 29.953125 139.648438 34.441406 150.355469 C 38.910156 160.984375 45.019531 170.121094 53.0625 178.148438 C 60.886719 185.972656 70.054688 192.230469 80.652344 196.785156 C 91.246094 201.410156 102.765625 203.957031 114.710938 203.957031 C 126.863281 203.957031 138.195313 201.519531 148.980469 196.785156 C 159.300781 192.28125 168.613281 186.121094 176.570313 178.148438 C 184.453125 170.253906 190.53125 160.929688 194.902344 150.355469 C 199.488281 139.539063 202.089844 128.316406 202.089844 116.082031 C 202.089844 105.285156 200.066406 95.160156 196.328125 85.308594 C 192.671875 75.835938 187.828125 67.363281 181.394531 59.5625 C 174.957031 51.929688 167.507813 45.613281 159.066406 40.730469 C 145.808594 33.078125 132.132813 28.5 116.28125 28.5 C 115.511719 28.5 114.761719 28.5 114.007813 28.5 C 98.363281 28.5 84.03125 32.980469 70.554688 40.730469 C 62.023438 45.578125 54.496094 51.960938 48.03125 59.5625 "/>
<path style=" stroke:none;fill-rule:evenodd;fill:rgb(13.299561%,12.199402%,12.5%);fill-opacity:1;" d="M 835.367188 178.144531 C 837.585938 178.144531 839.351563 178.855469 840.660156 180.433594 C 841.992188 181.933594 842.707031 183.875 842.707031 186.433594 C 842.707031 188.808594 841.992188 190.851563 840.660156 192.269531 C 839.351563 193.742188 837.585938 194.453125 835.367188 194.453125 C 833.1875 194.453125 831.5 193.773438 830.1875 192.269531 C 828.769531 190.851563 828.144531 188.808594 828.144531 186.433594 C 828.144531 183.875 828.769531 181.933594 830.1875 180.433594 C 831.5 178.855469 833.1875 178.144531 835.367188 178.144531 Z M 835.367188 163.691406 C 832.128906 163.691406 829.132813 164.207031 826.289063 165.355469 C 823.480469 166.507813 821.003906 168.078125 818.902344 170.210938 C 816.777344 172.335938 815.113281 174.710938 814.046875 177.4375 C 812.898438 180.191406 812.386719 183.191406 812.386719 186.433594 C 812.386719 189.515625 812.898438 192.515625 814.046875 195.269531 C 815.113281 197.886719 816.777344 200.375 818.902344 202.5 C 821.113281 204.515625 823.566406 206.179688 826.402344 207.324219 C 829.132813 208.386719 832.210938 209.011719 835.367188 209.011719 C 838.648438 209.011719 841.5625 208.386719 844.484375 207.324219 C 847.207031 206.179688 849.742188 204.515625 851.871094 202.5 C 854.074219 200.375 855.660156 197.886719 856.808594 195.15625 C 857.953125 192.433594 858.496094 189.519531 858.496094 186.433594 C 858.496094 183.191406 857.953125 180.191406 856.808594 177.4375 C 855.746094 174.710938 854.160156 172.335938 851.949219 170.210938 C 849.855469 168.078125 847.285156 166.507813 844.484375 165.355469 C 841.648438 164.207031 838.648438 163.691406 835.367188 163.691406 "/>
<path style=" stroke:none;fill-rule:evenodd;fill:rgb(13.299561%,12.199402%,12.5%);fill-opacity:1;" d="M 805.242188 195.707031 C 805.597656 193.65625 805.75 191.125 805.75 188.019531 L 805.75 164.640625 L 790.238281 164.640625 L 790.238281 188.207031 C 790.238281 190.851563 789.964844 192.707031 789.261719 193.855469 C 788.554688 194.917969 787.515625 195.433594 785.902344 195.433594 C 784.320313 195.433594 783.265625 194.917969 782.578125 193.855469 C 781.949219 192.867188 781.59375 190.9375 781.59375 188.207031 L 781.59375 164.640625 L 766.167969 164.640625 L 766.167969 188.019531 C 766.078125 191.289063 766.347656 193.773438 766.703125 195.707031 C 767.03125 197.726563 767.746094 199.304688 768.535156 200.644531 C 770.3125 203.363281 772.679688 205.390625 775.679688 206.808594 C 778.601563 208.308594 782.035156 209.011719 785.902344 209.011719 C 789.804688 209.011719 793.160156 208.308594 796.132813 206.808594 C 799.132813 205.390625 801.53125 203.363281 803.191406 200.644531 C 804.0625 199.304688 804.777344 197.640625 805.242188 195.707031 "/>
<path style=" stroke:none;fill-rule:evenodd;fill:rgb(13.299561%,12.199402%,12.5%);fill-opacity:1;" d="M 880.535156 164.640625 L 865.011719 164.640625 L 865.011719 207.867188 L 895.609375 207.867188 L 895.609375 193.855469 L 880.535156 193.855469 L 880.535156 164.640625 "/>
<path style=" stroke:none;fill-rule:evenodd;fill:rgb(95.298767%,66.299438%,20.799255%);fill-opacity:1;" d="M 173.089844 60.285156 C 162.265625 47.132813 148.261719 38.664063 130.976563 35.394531 C 114.007813 32.199219 97.933594 34.757813 82.714844 43.011719 C 74.894531 47.40625 68.285156 52.890625 62.957031 59.355469 C 57.476563 65.96875 53.285156 73.574219 50.585938 82.105469 C 47.8125 90.851563 47.101563 100.03125 48.03125 108.980469 C 50.304688 103.226563 53.785156 97.949219 57.921875 92.910156 C 63.882813 85.796875 71.28125 80.46875 79.53125 76.558594 C 87.765625 72.859375 96.800781 70.796875 106.183594 70.585938 C 115.628906 70.585938 124.808594 72.429688 133.324219 76.136719 C 142.300781 79.765625 150.121094 85.308594 156.789063 92.703125 C 159.285156 95.191406 161.355469 98.171875 163.402344 101.160156 C 166.382813 101.160156 169.378906 101.367188 171.9375 102.089844 C 178.621094 103.933594 183.890625 107.34375 188.011719 112.464844 L 188.210938 109.1875 C 188.9375 100.230469 188.011719 91.773438 185.527344 83.453125 C 182.960938 75.203125 178.824219 67.382813 173.089844 60.285156 "/>
<path style=" stroke:none;fill-rule:evenodd;fill:rgb(95.298767%,66.299438%,20.799255%);fill-opacity:1;" d="M 46.171875 143.03125 C 47.308594 149.929688 49.378906 156.535156 52.84375 162.578125 C 56.0625 168.558594 60.460938 174.023438 65.9375 178.863281 L 68.710938 181.140625 C 78.171875 187.613281 88.253906 192.230469 99.289063 194.507813 C 106.402344 195.851563 113.574219 195.425781 120.472656 193.796875 C 127.789063 192.230469 134.699219 189.246094 141.164063 184.835938 C 135.1875 183.484375 129.859375 180.277344 125.722656 175.449219 L 124.097656 173.605469 C 115.421875 174.527344 106.683594 174.246094 97.933594 172.46875 C 86.832031 169.914063 77.242188 165.285156 68.285156 158.890625 C 59.75 152.417969 52.652344 144.164063 47.308594 134.507813 L 45.957031 131.722656 C 45.746094 135.421875 45.746094 139.324219 46.171875 143.03125 "/>
<path style=" stroke:none;fill-rule:evenodd;fill:rgb(85.099792%,28.599548%,21.598816%);fill-opacity:1;" d="M 127.996094 85.09375 C 119.972656 81.609375 111.210938 80.046875 102.269531 80.046875 C 93.523438 80.253906 85.269531 82.105469 77.667969 85.796875 C 70.054688 89.21875 63.457031 94.265625 57.921875 100.738281 C 53.996094 105.574219 50.792969 110.835938 48.742188 116.375 C 50.304688 123.269531 52.84375 129.664063 56.5625 136.140625 C 61.820313 145.09375 68.710938 152.695313 77.242188 158.671875 C 85.492188 164.640625 94.953125 168.558594 105.03125 170.820313 C 111.210938 171.96875 117.695313 172.46875 124.097656 172.171875 C 121.609375 168.0625 119.972656 163.722656 119.261719 158.671875 C 118.402344 153.5625 118.628906 148.507813 119.539063 143.03125 C 120.675781 136.347656 123.171875 130.160156 126.636719 124.402344 C 130.359375 118.644531 135.1875 113.386719 140.863281 109.1875 C 144.570313 106.496094 148.480469 104.433594 152.394531 102.789063 L 150.324219 100.445313 C 143.859375 93.839844 136.53125 88.503906 127.996094 85.09375 "/>
<path style=" stroke:none;fill-rule:evenodd;fill:rgb(93.299866%,54.098511%,18.798828%);fill-opacity:1;" d="M 189.421875 124.402344 L 187.375 120.921875 C 184.378906 131.296875 178.824219 140.480469 171.726563 148.796875 C 170.089844 155.683594 167.316406 161.871094 163.699219 167.632813 C 159.996094 173.316406 155.152344 178.4375 149.617188 182.777344 C 153.53125 182.984375 157.441406 182.355469 161.355469 180.921875 C 165.039063 179.574219 168.453125 177.515625 171.9375 174.730469 C 176.570313 170.402344 180.90625 165.285156 184.597656 160.027344 L 185.230469 159.105469 C 186.867188 155.683594 188.511719 152.210938 189.632813 149 C 190.78125 145.519531 191.492188 142.109375 191.710938 138.921875 C 191.921875 135.421875 191.921875 132.433594 191.28125 129.453125 C 190.78125 127.613281 190.070313 125.972656 189.421875 124.402344 "/>
<path style=" stroke:none;fill-rule:evenodd;fill:rgb(88.999939%,41.999817%,20.399475%);fill-opacity:1;" d="M 38.128906 83.941406 C 35.148438 92.210938 33.523438 100.9375 33.097656 110.40625 C 32.886719 122.546875 35.148438 134.285156 39.78125 145.316406 C 42.039063 150.5625 44.832031 155.683594 48.226563 160.527344 C 51.519531 165.074219 55.132813 169.488281 59.25 173.316406 C 50.304688 163.433594 45.019531 151.988281 43.414063 139.125 C 42.976563 134.722656 42.976563 130.597656 43.191406 126.257813 C 40.210938 117.925781 38.574219 109.691406 38.574219 101.160156 C 38.574219 93.132813 39.984375 85.308594 42.480469 77.261719 C 44.609375 71.730469 47.308594 66.460938 50.304688 61.644531 C 45.019531 68.535156 41.140625 75.921875 38.128906 83.941406 "/>
<path style=" stroke:none;fill-rule:evenodd;fill:rgb(88.999939%,41.999817%,20.399475%);fill-opacity:1;" d="M 195.121094 88.789063 C 193.054688 82.105469 190.355469 75.632813 186.867188 69.664063 C 183.460938 63.90625 179.253906 58.636719 174.222656 53.820313 C 169.664063 48.972656 164.335938 44.847656 158.367188 41.371094 C 163.402344 44.847656 168.019531 48.972656 172.152344 53.597656 C 178.621094 60.921875 183.460938 68.742188 186.441406 77.488281 C 189.421875 86.4375 190.78125 95.691406 190.070313 105.285156 C 189.863281 108.273438 189.421875 111.039063 188.9375 114.027344 C 190.070313 115.875 191.28125 118.144531 192.210938 120.492188 C 194.472656 127.179688 194.902344 134.285156 193.765625 141.398438 C 197.25 131.527344 199.019531 121.125 198.808594 110.40625 C 198.378906 103.011719 197.25 95.691406 195.121094 88.789063 "/>
<path style=" stroke:none;fill-rule:evenodd;fill:rgb(88.999939%,41.999817%,20.399475%);fill-opacity:1;" d="M 168.019531 110.613281 C 170.300781 115.445313 171.726563 120.714844 172.359375 125.972656 C 173.089844 131.296875 173.289063 136.347656 172.863281 141.398438 L 171.9375 146.449219 C 178.824219 138.421875 183.460938 129.453125 186.164063 119.066406 C 184.597656 117.511719 182.960938 115.875 181.097656 114.53125 C 177.40625 111.964844 173.089844 110.613281 168.019531 110.613281 "/>
<path style=" stroke:none;fill-rule:evenodd;fill:rgb(85.099792%,28.599548%,21.598816%);fill-opacity:1;" d="M 154.242188 171.257813 C 157.015625 167.339844 159.285156 163.019531 160.921875 158.671875 C 151.671875 165.285156 141.589844 169.914063 130.566406 172.171875 C 132.132813 174.730469 134.253906 176.804688 136.53125 178.4375 C 138.816406 180 141.367188 181.140625 144.347656 182.066406 C 148.054688 178.863281 151.460938 175.160156 154.242188 171.257813 "/>
<path style=" stroke:none;fill-rule:evenodd;fill:rgb(85.099792%,28.599548%,21.598816%);fill-opacity:1;" d="M 108.015625 195.851563 L 117.917969 196.347656 C 126.445313 196.140625 134.460938 194.507813 142.300781 191.941406 C 149.617188 189.453125 156.789063 185.972656 162.992188 181.632813 C 159.066406 183.484375 154.945313 184.835938 150.550781 185.042969 C 149.191406 185.324219 147.550781 185.324219 145.992188 185.324219 C 134.699219 192.65625 122.019531 196.140625 108.015625 195.851563 "/>
<path style=" stroke:none;fill-rule:evenodd;fill:rgb(98.399353%,90.19928%,21.998596%);fill-opacity:1;" d="M 162.765625 129.238281 C 161.355469 123.269531 159.285156 117.734375 156.304688 112.464844 C 151.035156 114.027344 146.414063 116.804688 142.074219 120.492188 C 137.457031 124.402344 133.550781 129.238281 130.566406 134.722656 C 127.996094 140.253906 126.445313 145.519531 125.945313 151.058594 C 125.308594 156.320313 125.945313 161.164063 127.363281 165.78125 C 127.996094 167.339844 128.5 168.761719 129.433594 170.121094 C 135.1875 169.488281 140.441406 167.84375 145.710938 165.566406 C 151.242188 163.433594 156.304688 160.527344 161.132813 156.832031 L 161.558594 156.535156 C 162.492188 153.121094 163.199219 149.644531 163.699219 146.21875 C 164.109375 140.480469 163.902344 134.992188 162.765625 129.238281 "/>
</g>
</svg>
